<svg xmlns="http://www.w3.org/2000/svg" width="430" height="430" style="width:100%;height:100%;transform:translate3d(0,0,0);content-visibility:visible" viewBox="0 0 430 430"><defs><clipPath id="o"><path d="M0 0h430v430H0z"/></clipPath><clipPath id="y"><path d="M0 0h430v430H0z"/></clipPath><clipPath id="h"><path d="M0 0h430v430H0z"/></clipPath><clipPath id="v"><path d="M0 0h430v430H0z"/></clipPath><clipPath id="k"><path d="M0 0h430v430H0z"/></clipPath><clipPath id="s"><path d="M0 0h430v430H0z"/></clipPath><clipPath id="l"><path d="M0 0h430v430H0z"/></clipPath><clipPath id="p"><path d="M0 0h430v430H0z"/></clipPath><clipPath id="n"><path d="M0 0h430v430H0z"/></clipPath><mask id="j" mask-type="alpha"><use xmlns:ns1="http://www.w3.org/1999/xlink" ns1:href="#a"/></mask><mask id="i" mask-type="alpha"><use xmlns:ns2="http://www.w3.org/1999/xlink" ns2:href="#b"/></mask><mask id="A" mask-type="alpha"><use xmlns:ns3="http://www.w3.org/1999/xlink" ns3:href="#c"/></mask><mask id="w" mask-type="alpha"><use xmlns:ns4="http://www.w3.org/1999/xlink" ns4:href="#d"/></mask><mask id="m" mask-type="alpha"><use xmlns:ns5="http://www.w3.org/1999/xlink" ns5:href="#e"/></mask><mask id="u" mask-type="alpha"><use xmlns:ns6="http://www.w3.org/1999/xlink" ns6:href="#f"/></mask><mask id="r" mask-type="alpha"><use xmlns:ns7="http://www.w3.org/1999/xlink" ns7:href="#g"/></mask><g id="c" clip-path="url(#h)" style="display:none"><g mask="url(#i)" style="display:none"><path fill-opacity="0" stroke-linecap="round" stroke-linejoin="round" class="secondary"/></g><g mask="url(#j)" style="display:none"><path fill-opacity="0" stroke-linecap="round" stroke-linejoin="round" class="primary"/></g><path fill-opacity="0" stroke-linecap="round" stroke-linejoin="round" class="primary" style="display:none"/></g><g id="a" style="display:none"><path/><path fill-opacity="0" stroke-linecap="round" stroke-linejoin="round"/></g><g id="b" style="display:none"><path/><path fill-opacity="0" stroke-linecap="round" stroke-linejoin="round"/></g><g id="d" fill-opacity="0" stroke-linecap="round" stroke-linejoin="round" clip-path="url(#k)" style="display:block"><path stroke="#121331" stroke-width="3.36" d="M50.04.75c0 27.614-22.386 50-50 50s-50-22.386-50-50 22.386-50 50-50 50 22.386 50 50z" class="primary" style="display:block" transform="translate(217.437 214.557) scale(3.37264)"/><path stroke="#121331" stroke-width="2.1" d="m-12.533 30.57.066-.801c0-7.742 6.277-14.019 14.019-14.019h16.031c7.742 0 14.019 6.277 14.019 14.019l-.066.801" class="primary" style="display:block" transform="translate(164.457 164.133) scale(5.53113)"/><path stroke="#08A88A" stroke-width="2.1" d="M15.673-9.749a10.107 10.107 0 0 1 2.373 6.522s0 0 0 0c0 5.604-4.544 10.148-10.148 10.148S-2.25 2.377-2.25-3.227 2.293-13.375 7.898-13.375c3.121 0 5.913 1.409 7.775 3.626" class="secondary" style="display:block" transform="translate(173.694 182.11) scale(5.53113)"/></g><g id="f" clip-path="url(#l)" style="display:none"><path fill-opacity="0" stroke-linecap="round" stroke-linejoin="round" class="primary" style="display:none"/><g mask="url(#m)" style="display:none"><path fill-opacity="0" stroke-linecap="round" stroke-linejoin="round" class="primary"/></g><path fill-opacity="0" stroke-linecap="round" stroke-linejoin="round" class="secondary" style="display:none"/></g><g id="e" style="display:none"><path/><path fill-opacity="0" stroke-linecap="round" stroke-linejoin="round"/></g><g id="g" fill-opacity="0" stroke-linecap="round" stroke-linejoin="round" clip-path="url(#n)" style="display:none"><path class="primary" style="display:none"/><path class="primary" style="display:none"/><path class="secondary" style="display:none"/></g><filter id="z" width="300%" height="300%" x="-100%" y="-100%"><feGaussianBlur result="filter_result_0"/></filter><filter id="x" width="300%" height="300%" x="-100%" y="-100%"><feGaussianBlur result="filter_result_0" stdDeviation="52.5 52.5"/></filter><filter id="t" width="300%" height="300%" x="-100%" y="-100%"><feGaussianBlur result="filter_result_0"/></filter><filter id="q" width="300%" height="300%" x="-100%" y="-100%"><feGaussianBlur result="filter_result_0"/></filter></defs><g clip-path="url(#o)"><g clip-path="url(#p)" filter="url(#q)" mask="url(#r)" style="display:none"><g class="design"><path class="primary"/></g><g class="design"><path class="secondary"/></g></g><g clip-path="url(#s)" filter="url(#t)" mask="url(#u)" style="display:none"><g class="design"><path class="primary"/></g><g class="design"><path class="secondary"/></g></g><g clip-path="url(#v)" mask="url(#w)" style="display:block"><g filter="url(#x)" transform="rotate(-94 228.504 -27.565) scale(2.4)"><g class="design"><path fill="#4BE1EC" d="M0-250c137.975 0 250 112.025 250 250S137.975 250 0 250-250 137.975-250 0-137.975-250 0-250z" class="primary"/></g><g class="design"><path fill="#CB5EEE" d="M113.242-295.384c97.478 0 176.5 79.022 176.5 176.5s-79.022 176.5-176.5 176.5c-43.948 0-74.396-34.057-105.29-60.631-37.631-32.369-71.21-62.338-71.21-115.869 0-97.478 79.022-176.5 176.5-176.5z" class="secondary"/></g></g></g><g clip-path="url(#y)" filter="url(#z)" mask="url(#A)" style="display:none"><g class="design"><path class="primary"/></g><g class="design"><path class="secondary"/></g></g></g></svg>